<?xml version="1.0" encoding="UTF-8"?>
<svg id="Layer_1" data-name="Layer 1" xmlns="http://www.w3.org/2000/svg" xmlns:svgjs="http://svgjs.com/svgjs" version="1.1" viewBox="0 0 1546 1296">
  <defs>
    <style>
      .cls-1 {
        stroke: #002664;
      }

      .cls-1, .cls-2, .cls-3, .cls-4, .cls-5, .cls-6, .cls-7, .cls-8 {
        fill: none;
        stroke-width: 4px;
      }

      .cls-1, .cls-2, .cls-3, .cls-4, .cls-6, .cls-7, .cls-8 {
        stroke-linecap: round;
        stroke-linejoin: round;
      }

      .cls-2 {
        stroke: #cdd3d6;
      }

      .cls-9, .cls-10, .cls-11, .cls-12, .cls-13, .cls-14, .cls-15, .cls-16, .cls-17, .cls-18, .cls-19, .cls-20, .cls-21, .cls-22, .cls-23, .cls-24 {
        stroke-width: 0px;
      }

      .cls-9, .cls-12 {
        fill: #146cfd;
      }

      .cls-10, .cls-11, .cls-12, .cls-16 {
        isolation: isolate;
        opacity: .2;
      }

      .cls-10, .cls-15 {
        fill: #002664;
      }

      .cls-11 {
        fill: #002664;
      }

      .cls-13 {
        fill: #61ccff;
      }

      .cls-3 {
        stroke: #23211f;
      }

      .cls-14 {
        fill: #d7153a;
      }

      .cls-4 {
        stroke: #d7153a;
      }

      .cls-5, .cls-6 {
        stroke: #fff;
      }

      .cls-16 {
        fill: #495054;
      }

      .cls-17 {
        fill: #cbedfd;
      }

      .cls-18 {
        fill: #8ce0ff;
      }

      .cls-7 {
        stroke: #495054;
      }

      .cls-19 {
        fill: #ffe6ea;
      }

      .cls-8 {
        stroke: #22272b;
      }

      .cls-20 {
        fill: #ebebeb;
      }

      .cls-21 {
        fill: #22272b;
      }

      .cls-22 {
        fill: #ac704e;
      }

      .cls-23 {
        fill: #ffb8c1;
      }

      .cls-24 {
        fill: #fff;
      }
    </style>
  </defs>
  <path class="cls-14" d="M1378.9,1005.6l-50.1-5.8,7.3-43.3c.2-1-.4-1.9-1.3-2.2s-1.9,0-2.4.9l-20,35.6-33.3-36.1c-.7-.7-1.8-.9-2.6-.3-.8.6-1.1,1.6-.7,2.5l20.9,43.8-35.5,8c-.9.2-1.6,1-1.6,2s.7,1.8,1.6,1.9l36.1,6.5-14.5,54.8c-.3,1,.2,2,1.2,2.4.2.1.5.2.8.2.7,0,1.4-.4,1.7-1l27.3-47.1,24.5,26.6c.6.7,1.7.9,2.5.4.8-.5,1.2-1.5.8-2.4l-12.3-34.4,49.6-9.1c1-.2,1.7-1,1.6-2-.1-1-.6-1.8-1.6-1.9Z"/>
  <path class="cls-15" d="M1121.5,230.2c7.9,0,14.3-6.4,14.3-14.3s-6.4-14.3-14.3-14.3-14.3,6.4-14.3,14.3,6.4,14.3,14.3,14.3Z"/>
  <path class="cls-2" d="M1173.3,800.8c29.7,21.5,96.7-3.8,138.1-28.6,46-27.6,48.1-57.3,29.7-57.3s-89,78.8-52.2,96.1c30.4,14.4,85.9-11.2,100.2,5.1,14.3,16.3,20.5,52.2,60.3,70.6"/>
  <path class="cls-15" d="M303.3,1036.3c9.1,0,16.4-7.3,16.4-16.4s-7.3-16.4-16.4-16.4-16.4,7.3-16.4,16.4,7.3,16.4,16.4,16.4Z"/>
  <path class="cls-18" d="M1150.7,1118.1c9.9,0,17.9-8,17.9-17.9s-8-17.9-17.9-17.9-17.9,8-17.9,17.9,8,17.9,17.9,17.9Z"/>
  <path class="cls-18" d="M162.3,513.5c10.4,0,18.9-8.5,18.9-18.9s-8.5-18.9-18.9-18.9-18.9,8.5-18.9,18.9,8.5,18.9,18.9,18.9Z"/>
  <path class="cls-23" d="M248.1,642.9c11-7.9,13.5-23.2,5.5-34.2-7.9-11-23.2-13.5-34.2-5.5-11,7.9-13.5,23.2-5.6,34.2,7.9,11,23.2,13.5,34.2,5.5Z"/>
  <path class="cls-2" d="M105.1,854.4c39.5-34.8,112.7-81.8,174-41.9,0,0-60.3-78.8-29.6-115.6,40.1-48.2,158.1,82.8,140.4,105.3-18.2,23-58.9-79.9-37.6-137.1,16.8-45,97,22.5,109.9,62.4"/>
  <g>
    <path class="cls-19" d="M1182.8,322.8h-83.9s-9.7,49.6,19.5,75.9h83.9c-29.2-26.3-19.5-75.9-19.5-75.9Z"/>
    <path class="cls-9" d="M1065.2,279.9h-83.9s-9.7,49.6,19.5,75.9h83.9c-29.3-26.3-19.5-75.9-19.5-75.9Z"/>
  </g>
  <g>
    <path class="cls-14" d="M858.2,161.3h86.5c19.9,0,36,16.1,36,36v1.6c0,19.9-16.1,36-36,36h-86.5c-19.9,0-36-16.1-36-36v-1.6c0-19.9,16.1-36,36-36Z"/>
    <path class="cls-6" d="M874,202.9c5.9,0,10.7-4.8,10.7-10.7s-4.8-10.7-10.7-10.7-10.7,4.8-10.7,10.7,4.8,10.7,10.7,10.7Z"/>
    <path class="cls-6" d="M882.7,198.7l-12.9,16.1"/>
    <path class="cls-6" d="M907.3,202.9c5.9,0,10.7-4.8,10.7-10.7s-4.8-10.7-10.7-10.7-10.7,4.8-10.7,10.7,4.8,10.7,10.7,10.7Z"/>
    <path class="cls-6" d="M916,198.7l-12.9,16.1"/>
    <path class="cls-6" d="M936.3,190.6v15.1"/>
    <path class="cls-6" d="M943.8,198.2h-15"/>
  </g>
  <path class="cls-18" d="M1063.8,527h-138c-7.6,0-13.8-6.2-13.8-13.8v-97.1c0-7.6,6.2-13.8,13.8-13.8h37.3c4.9,0,9.4,2.6,11.9,6.8l4.3,7.3c2.5,4.2,7,6.8,11.9,6.8h72.7c7.6,0,13.8,6.2,13.8,13.8v76.2c0,7.6-6.2,13.8-13.9,13.8q0,0,0,0Z"/>
  <g>
    <path class="cls-13" d="M488.7,757.1h237c17,0,30.9,13.8,30.9,30.9v237c0,17-13.8,30.9-30.9,30.9h-237c-17,0-30.9-13.8-30.9-30.9v-237c0-17.1,13.8-30.9,30.9-30.9Z"/>
    <path class="cls-6" d="M496.7,998.5h220.9"/>
    <path class="cls-6" d="M496.7,998.5v-175.9"/>
    <path class="cls-1" d="M486.5,901.3c38.9,0,35.8,53.2,63.4,53.2,40.9,0,48.1-113.5,94.1-113.5s39.9,64.4,71.6,64.4"/>
    <path class="cls-24" d="M606.1,889.1c9.1,0,16.4-7.3,16.4-16.4s-7.3-16.4-16.4-16.4-16.4,7.3-16.4,16.4,7.3,16.4,16.4,16.4Z"/>
    <path class="cls-6" d="M537.6,997.5v-9.2"/>
    <path class="cls-6" d="M578.5,997.5v-9.2"/>
    <path class="cls-6" d="M619.4,997.5v-9.2"/>
    <path class="cls-6" d="M660.3,997.5v-9.2"/>
    <path class="cls-6" d="M701.3,997.5v-9.2"/>
  </g>
  <g>
    <path class="cls-17" d="M330.7,602.4c-8.9,0-17.4-3.5-23.7-9.8-6.3-6.3-9.8-14.8-9.8-23.7V251.5c0-8.9,3.5-17.4,9.8-23.7s14.8-9.8,23.7-9.8h411.9c8.9,0,17.4,3.6,23.7,9.8,6.3,6.3,9.8,14.8,9.8,23.7v317.5c0,8.9-3.5,17.4-9.8,23.7s-14.8,9.8-23.7,9.8h-411.9Z"/>
    <path class="cls-5" d="M297.2,289.9h480.3"/>
    <path class="cls-24" d="M332.5,266c7,0,12.7-5.7,12.7-12.7s-5.7-12.7-12.7-12.7-12.7,5.7-12.7,12.7,5.7,12.7,12.7,12.7Z"/>
    <path class="cls-24" d="M371.1,266c7,0,12.7-5.7,12.7-12.7s-5.7-12.7-12.7-12.7-12.7,5.7-12.7,12.7,5.7,12.7,12.7,12.7Z"/>
    <path class="cls-24" d="M409.7,266c7,0,12.7-5.7,12.7-12.7s-5.7-12.7-12.7-12.7-12.7,5.7-12.7,12.7,5.7,12.7,12.7,12.7Z"/>
  </g>
  <g>
    <path class="cls-18" d="M430.1,387h-51.8v161.2h51.8v-161.2Z"/>
    <path class="cls-23" d="M617.6,363.5h-51.8v184.8h51.8v-184.8Z"/>
    <path class="cls-15" d="M523.8,329.4h-51.8v218.9h51.8v-218.9Z"/>
    <path class="cls-15" d="M711.2,455.2h-51.8v93.1h51.8v-93.1Z"/>
    <path class="cls-1" d="M352.4,548.3h384.7"/>
  </g>
  <path class="cls-9" d="M324.2,381.6l-65.4-14.4,19.8-44.3c.4-.9.1-1.9-.7-2.5-.8-.5-1.9-.4-2.6.2l-34.8,35.2-33.6-40.9c-.6-.8-1.7-1-2.5-.5s-1.2,1.5-.9,2.4l17.7,48.6h-51c-1,0-1.8.7-2,1.7s.4,1.9,1.3,2.2l51.4,17.7-19.8,47.6c-.4.9,0,1.9.8,2.5.8.5,1.9.4,2.6-.3l34.7-38.2,43.2,50.3c.4.5,1,.7,1.5.7s.8-.1,1.1-.3c.8-.5,1.1-1.6.7-2.5l-27.2-58,65.4-3.3c1,0,1.8-.8,1.9-1.8.1-.9-.6-1.8-1.6-2.1Z"/>
  <g>
    <path class="cls-23" d="M993.5,616.9h224.1c11.5,0,20.9,9.4,20.9,20.9v256.9c0,11.5-9.4,20.9-20.9,20.9h-224.1c-11.5,0-20.9-9.4-20.9-20.9v-256.9c0-11.6,9.4-20.9,20.9-20.9Z"/>
    <path class="cls-6" d="M1020.3,682.9l9.2,9.2,14.9-14.8"/>
    <path class="cls-6" d="M1038.2,772.6c4.6-3.2,5.8-9.6,2.6-14.2-3.2-4.6-9.6-5.8-14.2-2.6-4.6,3.2-5.8,9.6-2.6,14.2,3.2,4.6,9.6,5.8,14.2,2.6Z"/>
    <path class="cls-6" d="M1038.2,852c4.6-3.2,5.8-9.6,2.6-14.2-3.2-4.6-9.6-5.8-14.2-2.6-4.6,3.2-5.8,9.6-2.6,14.2,3.2,4.6,9.6,5.8,14.2,2.6Z"/>
    <path class="cls-1" d="M1073.3,686.6h93"/>
    <path class="cls-1" d="M1073.3,764.3h93"/>
    <path class="cls-1" d="M1073.3,843h93"/>
  </g>
  <path class="cls-15" d="M1309.2,868.6c6.4,0,11.5-5.1,11.5-11.5s-5.1-11.5-11.5-11.5-11.5,5.2-11.5,11.5,5.2,11.5,11.5,11.5Z"/>
  <g>
    <path class="cls-16" d="M1212.6,702.3c63.3,0,114.6-51.3,114.6-114.6s-51.3-114.6-114.6-114.6-114.6,51.3-114.6,114.6,51.3,114.6,114.6,114.6Z"/>
    <path class="cls-3" d="M1241.5,629.4h14.1"/>
    <path class="cls-20" d="M1212.6,676.3c63.3,0,114.6-51.3,114.6-114.6s-51.3-114.6-114.6-114.6-114.6,51.3-114.6,114.6,51.3,114.6,114.6,114.6Z"/>
    <path class="cls-18" d="M1256.7,630.5v-10.9h-64.5c0-.1,0,11.9,0,11.9h-21.5c-16.3,0-29.4,9.6-35.3,14.8,46.7,42.7,119.1,39.4,161.8-7.3.6-.7,1.3-1.4,1.9-2.1-6.2-4.1-13.5-6.3-21-6.5h-21.4Z"/>
    <path class="cls-22" d="M1159,567.4c2.3-11.6,2.2-25.9,4.2-38.8,1.4-8.8,3.7-16.9,8.5-22.9,11.8-14.7,43.5-20.4,68.9-1.8,25.4,18.6,24.1,44.8,23.1,56.6l-7.1,39.7v19.7c0,0-64.4,0-64.4,0v-10.7c0,0-14.2,3-22.5-2.7-11.2-7.7-14.6-19.6-10.7-39.1Z"/>
    <path class="cls-21" d="M1171.7,505.7c11.8-14.7,45.4-23.9,70.8-5.3,25.4,18.6,22.2,48.3,21.2,60.1l-7.1,39.7s-19.1-6-27.2-21.2c0,0,27.7-12.4,15.1-30.2-12.1-17.1-33.2,4-33.2,4-12.1-4-24.2-21.2-24.2-21.2-18.1,1-23.9-3.1-23.9-3.1,1.4-8.7,3.7-16.8,8.5-22.8Z"/>
    <path class="cls-21" d="M1190.1,561.3c1.7,0,3.1-1.4,3.1-3.1s-1.4-3.1-3.1-3.1-3.1,1.4-3.1,3.1,1.4,3.1,3.1,3.1Z"/>
    <path class="cls-21" d="M1168,559.2c1.7,0,3.1-1.4,3.1-3.1s-1.4-3.1-3.1-3.1-3.1,1.4-3.1,3.1,1.4,3.1,3.1,3.1Z"/>
    <path class="cls-8" d="M1174.7,566.4c-.5,1.7-.8,3.2-.5,3.8.5.9,1.3,1.7,2.2,2.2"/>
    <path class="cls-8" d="M1185,581.1c-1.9,1.8-4.6,2.6-7.2,2"/>
    <path class="cls-8" d="M1204.4,606.7c-3.6,1.6-8.5,1.3-12.3,2.5"/>
    <path class="cls-8" d="M1229.4,559.9l-7,5"/>
  </g>
  <g>
    <path class="cls-15" d="M1326.6,417.4h-52.8c-19.4,0-35.2,15.8-35.2,35.2s12.5,31.9,29.6,34.7v18l25.8-17.6h32.6c19.4,0,35.2-15.8,35.2-35.2s-15.8-35.2-35.2-35.2Z"/>
    <path class="cls-24" d="M1280.4,456.8c2.7,0,4.8-2.1,4.8-4.8s-2.2-4.8-4.8-4.8-4.8,2.2-4.8,4.8,2.2,4.8,4.8,4.8Z"/>
    <path class="cls-24" d="M1300.2,456.8c2.7,0,4.8-2.1,4.8-4.8s-2.2-4.8-4.8-4.8-4.8,2.2-4.8,4.8,2.2,4.8,4.8,4.8Z"/>
    <path class="cls-24" d="M1319.9,456.8c2.7,0,4.8-2.1,4.8-4.8s-2.2-4.8-4.8-4.8-4.8,2.2-4.8,4.8,2.2,4.8,4.8,4.8Z"/>
  </g>
  <g>
    <path class="cls-16" d="M402.5,991h91.8c13.1,0,23.6,10.6,23.6,23.7v49.3c0,13.1-10.6,23.7-23.6,23.7h-91.8c-13.1,0-23.6-10.6-23.6-23.7v-49.3c0-13.1,10.6-23.7,23.6-23.7Z"/>
    <path class="cls-9" d="M394.4,976.2h91.8c13.1,0,23.7,10.6,23.7,23.7v49.3c0,13.1-10.6,23.7-23.7,23.7h-91.8c-13.1,0-23.6-10.6-23.6-23.7v-49.3c0-13.1,10.6-23.7,23.6-23.7Z"/>
    <path class="cls-10" d="M440.2,1046.2l62.2-63.5h-124.4l62.2,63.5Z"/>
    <path class="cls-9" d="M440.2,1032.4l62.2-49.7c-4.1-4.1-9.9-6.5-16.2-6.5h-91.8c-6.3,0-12.1,2.5-16.2,6.5l62.1,49.7Z"/>
    <path class="cls-1" d="M502.1,983l-61.9,49.4-62-49.5"/>
    <path class="cls-1" d="M453.2,1023.4l50.5,40.4"/>
    <path class="cls-1" d="M376.4,1063.6l50.6-40.4"/>
  </g>
  <g>
    <path class="cls-14" d="M478.3,797c36.5,0,66-29.5,66-66s-29.5-66-66-66-66,29.5-66,66,29.6,66,66,66Z"/>
    <path class="cls-19" d="M496.3,749c16.9-16.9,22.5-38.7,12.5-48.7s-3.3-2.7-5.2-3.5c-1.7-.7-3.5-1.1-5.3-1.3-1.5-.2-3,.6-3.6,1.9l-8,15.5c-.9,1.8-.2,3.9,1.5,4.8,0,0,.2,0,.3,0l4.4,1.8c1.8.7,2.6,2.7,1.9,4.4,0,.2-.2.4-.3.5-5.7,9.1-13.4,16.8-22.5,22.6-1.6,1-3.7.5-4.7-1.1,0-.2-.2-.4-.3-.5l-1.8-4.5c-.7-1.8-2.8-2.7-4.6-2h-.3c0,0-15.5,8.1-15.5,8.1-1.3.6-2.1,2-1.9,3.5.2,1.9.6,3.7,1.3,5.5.8,2,2,3.7,3.5,5.2,9.9,10.2,31.7,4.6,48.6-12.3Z"/>
  </g>
  <g>
    <path class="cls-22" d="M791.9,315.3c-16.8-9.3-33-13.3-43.8-9-25,8.9-36.3,51-36.7,52.7,0,0-9.2-.1-10.5,3.6-1.5,4.6,5.2,11.4,5.2,11.4-3.6,10.4-7.6,24.5-1.7,36.7,5.6,11.5,20.3,17.5,38.7,14.5l-.6,6.8,71.6,10.8c.9-3,6.2-57.2,7.2-67.5,2-21.8-2.5-45.2-29.4-60Z"/>
    <path class="cls-11" d="M743.2,425.3s11-2.6,17.7-5.9l-19.2,21.9,1.5-16Z"/>
    <path class="cls-22" d="M987.6,1108.3l72.5-32.8-3.8-20.2c-.7-4.2-1.8-8.2-2.9-12-.8-2.7-1.6-5.5-2.5-8.3-3.4-11.2-7.5-23.7-12.5-37.5-5.1-14.2-10.4-27-15.8-38.8l-98.1,34.6c13.5,20.5,26.5,41.4,34.6,57.9,2.2,4.2,4,8.8,5.6,13.3l22.9,43.8Z"/>
    <path class="cls-19" d="M1026.5,1068c-13.2,5.6-17.2,27.4-25.6,28.7-8.3,1.3-.6-19.7-5.8-32-4.6-10.8-15.2-6.9-30.7-.3,1,2.8,1.8,5.6,2.5,8.4,1.5,6.5,1.7,12.1.2,16.5-7.9,23-28.6,35.1-29.1,57v.6c0,0,127.1-54,127.1-54h0c-2.4-12.6-5.3-25.4-8.7-37.9l-29.9,13Z"/>
    <path class="cls-4" d="M982.9,1090.6l-15.3-1.4"/>
    <path class="cls-4" d="M978.9,1106.8l-17-5.4"/>
    <path class="cls-22" d="M698.6,410.3c-8.3-3.7-16.2,10.7-23.5,18.4-3.4,3.6-7.5,5.4-9.2,2-7.2-14.3,26.6-18.4,29.7-24.5,3.1-6.1-2-10.2-14.3-8.2-18.4-5.1-35.5,3.2-43,15.3-8.2,13.3-7.5,17.5-23.5,46-2.9,5.2-5.9,10.8-8.7,16.4l47.3,29.9,25.9-44.2c0,0,28.5-47,19.3-51.1Z"/>
    <path class="cls-9" d="M862.2,486c-13.3-24-35.8-37.9-48.1-43,.3-.9.9-5.8,1.6-12.6l-73.2.3-1.1,11.1s-19.3.4-32.7,4.1c-11.2,3.1-19.4,6.3-29.7,15.5l-30.7,36.7-41.8-23.7c-20.2,40.2-35.7,89.8-6.3,113.7,38.9,31.7,99.2-26.5,99.2-26.5l20.7,67.6,112.6,1.8,20.2,16.3s16-1.5,25.4-7c44.1-25.2-.7-126.7-16.1-154.3Z"/>
    <path class="cls-21" d="M908.2,484.9c-8.2-63.4-72.6-61.4-81.8-108.4-5.5-28.1-4.8-50.5-31.7-65.4-16.8-9.3-35.8-9.1-46.6-4.8-13.5,4.8-22.7,18-28,29.4l14.6,12.9s23.6-13.1,23.2-12.1c-10.2,13.3-15,20-15,20l15.8,15.2s30.6-16.4,36.9,3.2c6.3,19.6-24.5,33.3-24.5,33.3-6.1,57.2,19.5,76.8,19.5,76.8h22.9s-7.2-30.3-5.5-28.6c9.2,12.3,25.1,28.6,25.1,28.6h75.1Z"/>
    <path class="cls-8" d="M832.6,629.1l14.2-85.9"/>
    <path class="cls-8" d="M839.7,594.3l14.3,6.1"/>
    <path class="cls-8" d="M700.2,560.9l21.9-18.2"/>
    <path class="cls-8" d="M654.6,409.2c7.1-5.4,17.3-9.6,26.5-11.1"/>
    <path class="cls-8" d="M715.8,383.1l8.4-.4"/>
    <path class="cls-8" d="M743.8,425.1c4.1-1.5,8.1-3,12.1-4.5"/>
    <path class="cls-8" d="M742.5,441.9h9.1"/>
    <path class="cls-8" d="M768,387.5l9-4.4"/>
    <path class="cls-21" d="M726.7,365.6c1.8,0,3.2-1.4,3.2-3.2s-1.4-3.2-3.2-3.2-3.2,1.4-3.2,3.2,1.4,3.2,3.2,3.2Z"/>
    <path class="cls-21" d="M823.9,326.4c15.5,0,28.1-12.6,28.1-28.1s-12.6-28.1-28.1-28.1-28.1,12.6-28.1,28.1,12.6,28.1,28.1,28.1Z"/>
    <path class="cls-4" d="M771.1,286.5l67.6,62.4"/>
    <path class="cls-10" d="M1032.5,982.3c-3.3-8.3-6.7-16.2-10.1-23.6l-97.1,36,107.2-12.4Z"/>
    <path class="cls-22" d="M833.1,1091.8c1.4-12.6,2.6-27.1,3.5-43.4.8-13.8,1-26.8.6-38.8h-102.2c4.3,23.9,7.5,46.4,7.7,63.9,0,3.5,0,6.7-.2,9.9l7.5,42.2,16.2,12.6,58.2-6.6,6.2-20.7c.6-4.3,1.2-8.6,1.7-12.9.4-2.1.7-4.1.8-6.2Z"/>
    <path class="cls-19" d="M764.9,1127.2c-8.2-2,7.2-18.4,7.2-31.7s-11.8-12.3-29.5-12.3h0c-.4,5.7-1.3,10.7-2.7,14.7-.9,2.7-2.4,5.3-4.3,7.4-16.4,18.1-40,21.8-49.1,40.9v4.2c0,0,136.5-1.9,136.5-1.9l1.5-2.3c2.6-11.8,4.7-23.7,6.3-35.5h-31c-14.2.1-26.5,18.6-34.8,16.5Z"/>
    <path class="cls-10" d="M837.3,1009.7h-102.2l102.1,26.3c.3-9.2.3-18,0-26.3Z"/>
    <path class="cls-15" d="M956.3,849c-28.7-40.4-35.5-91.3-60.2-141.6-24.7-50.3-63.6-78.3-63.6-78.3h-34.4c0,0,0,0,0,0h-77.9s-18.9,123.6-2.8,275.3c3.4,32.6,11.5,72.7,17.7,107.4l119.7.6c9.2-32.9-27.3-75.9-36.3-114.2-5.8-25-1.9-55.2,2.9-86.3,15.6,32.4,32.9,66.4,51.1,99.4,14.7,26.5,34.9,56,53,83.6l115.9-42.5c-9.3-53.2-70.4-82.8-85-103.3Z"/>
    <path class="cls-10" d="M832.6,629.1l8.6,7.1,11.6,11.2c.3,0,12.2-1.2,21.3-5-23.1-17.6-31.8-72.5-31.8-72.5l-9.7,59.2Z"/>
    <path class="cls-10" d="M633.4,489.6l-15.7,50,30.7-41.5-15-8.5Z"/>
    <path class="cls-4" d="M748.2,1113.3l-13.3-7.3"/>
    <path class="cls-4" d="M737.7,1125.6l-12.3-10.5"/>
    <path class="cls-12" d="M833.2,746.1c20.3,100.7,53.4,114.5,58,196.5-6.8-10.7-16.6-27-22.2-37.1-29.2-56.4-23-40.1-47-92.8l11.2-66.6Z"/>
    <path class="cls-7" d="M869.4,666.7h-18.3l5.5,20.4c2.8,10.3,14,18.6,22.2,18.6s10.7-2.1,13.1-5.5"/>
    <path class="cls-7" d="M821.2,811.8c3.4-28.5,11.7-56.4,13.4-84.1"/>
    <path class="cls-7" d="M796.7,705.8c10.2,0,16.3-8.3,13.6-18.5l-5.5-20.3h-37l5.5,20.3c2.8,10.2,13.3,18.5,23.4,18.5Z"/>
    <path class="cls-7" d="M740.8,630.2c-5.7,44-7.7,160.2,3.8,228,11.2,66.5,27.6,100.2,31.1,150.8"/>
    <path class="cls-8" d="M618,539.6l29.6-41"/>
    <path class="cls-15" d="M1067.3,1107.8l-126.8,53.5c-1.8-4.8-2.7-10.2-2.6-15.3l127.1-53.6c1.9,9.9,2.3,15.4,2.3,15.4Z"/>
    <path class="cls-15" d="M820.5,1161.3h-137.6c.3-5.2,1.5-10.3,3.6-15h138c-2.3,10.1-4,15-4,15Z"/>
  </g>
  <g>
    <path class="cls-24" d="M281.8,893.9l-17.3,25.9,31.5-12.9-14.2-13Z"/>
    <path class="cls-16" d="M281.8,893.9l-17.3,25.9,31.5-12.9-14.2-13Z"/>
    <path class="cls-9" d="M281.8,893.9l18.3,40.3,59.7-70.9c.1-.1,0-.3-.2-.2l-77.7,30.9Z"/>
    <path class="cls-9" d="M246.5,868.7l35.2,25.2,77.8-30.9c0,0,0-.2,0-.2l-113,5.9Z"/>
    <path class="cls-7" d="M281.8,893.9l7.6,16.9"/>
    <path class="cls-7" d="M359.5,863l-77.7,30.9"/>
  </g>
</svg>