<?xml version="1.0" encoding="UTF-8"?>
<svg id="Layer_1" data-name="Layer 1" xmlns="http://www.w3.org/2000/svg" xmlns:svgjs="http://svgjs.com/svgjs" version="1.1" viewBox="0 0 1600 1200">
  <defs>
    <style>
      .cls-1 {
        fill: #8ce0ff;
      }

      .cls-1, .cls-2, .cls-3, .cls-4, .cls-5, .cls-6, .cls-7, .cls-8, .cls-9, .cls-10, .cls-11 {
        stroke-width: 0px;
      }

      .cls-12 {
        stroke: #22272b;
      }

      .cls-12, .cls-13, .cls-14 {
        stroke-width: 2.8px;
      }

      .cls-12, .cls-13, .cls-14, .cls-15 {
        fill: none;
        stroke-linecap: round;
        stroke-linejoin: round;
      }

      .cls-2 {
        fill: #b86645;
      }

      .cls-3 {
        fill: #cdd3d6;
      }

      .cls-13 {
        stroke: #495054;
      }

      .cls-4 {
        fill: #d7153a;
      }

      .cls-14 {
        stroke: #000;
      }

      .cls-15 {
        stroke: #cdd3d6;
        stroke-width: 4px;
      }

      .cls-5 {
        fill: #ffb8c1;
      }

      .cls-6 {
        fill: #146cfd;
      }

      .cls-7 {
        fill: #002664;
      }

      .cls-8 {
        fill: #fff;
      }

      .cls-9 {
        fill: #cbedfd;
      }

      .cls-10 {
        fill: #495054;
      }

      .cls-11 {
        fill: #22272b;
      }
    </style>
  </defs>
  <g>
    <path class="cls-9" d="M298,864.3c34.6-147.7,215.5-226.4,323.8-156.7,0,0,82-220.6,266.3-198.5,184.4,22.1,231.5,235.2,231.5,235.2,0,0,150.1-40.7,184.4,120H298Z"/>
    <path class="cls-15" d="M621.8,707.6c-5.8,22.9,0,63.3,0,63.3"/>
    <path class="cls-15" d="M1119.6,744.3c4,21.3,6.9,42.6,8.5,64.1"/>
  </g>
  <path class="cls-3" d="M596.3,247.4c-22,0-39.7,17.7-39.7,39.7s17.7,39.7,39.7,39.7,39.7-17.7,39.7-39.7-17.9-39.7-39.7-39.7h0ZM596.3,316c-15.9,0-28.9-13-28.9-28.9s13-28.8,28.9-28.8,28.8,13,28.8,28.8-13,28.9-28.8,28.9Z"/>
  <path class="cls-3" d="M607.1,640.9h-45.5c-57.7,0-104.4-46.7-104.4-104.2v-161.1c0-57.7,46.7-104.4,104.2-104.4h45.6c57.7,0,104.4,46.7,104.4,104.2v161.1c0,57.7-46.7,104.4-104.4,104.4h.1Z"/>
  <path class="cls-7" d="M589.2,968.2v-32.5h-39.7v32.5c-21.3,11-18.2,39.3-18.2,39.3h75.9c0,.2,3.3-28.3-18-39.3Z"/>
  <path class="cls-13" d="M533.3,997.8h71.9"/>
  <path class="cls-13" d="M591,969.3c-6.6-3.6-14-5.6-21.6-5.2-6.9-.2-13.7,1.2-19.8,4.3"/>
  <path class="cls-7" d="M755.7,956.7l-2.7-17.5h-53.6l3.4,68.3h133.7s-4.5-38.3-28.2-38.3h-34.5c-11.4.2-16.1-1.6-18.2-12.6h0Z"/>
  <path class="cls-13" d="M704.3,996h129"/>
  <path class="cls-13" d="M792.4,969.5v26.5"/>
  <path class="cls-12" d="M458.8,526.6l88.5,88.7"/>
  <path class="cls-6" d="M742.3,939.2h-43.5l2.6,40.9,40.9-40.9Z"/>
  <path class="cls-6" d="M549.6,938.2l39.7,20,.3-20.4h-40v.4Z"/>
  <path class="cls-4" d="M547.2,568.1l-25,375.3h98.4s31.4-254.1,31.6-253.6l31.6,253.6h98.4l-24.3-374.8s-79.9-14.2-106.5-14.2c-26.3.2-104.1,13.7-104.1,13.7h-.1Z"/>
  <path class="cls-12" d="M652.2,598.9v53"/>
  <path class="cls-12" d="M640.4,678.4l-1.2,10.7"/>
  <path class="cls-12" d="M636.5,709.6l-24.7,194.7"/>
  <path class="cls-12" d="M457.2,445.1c17.7-15.2,28.5-36.8,30.3-60.1v-27.6c0-10.5,8.5-19,18.9-19h42.1"/>
  <path class="cls-12" d="M593,289.5v-18.2"/>
  <path class="cls-12" d="M459.2,478.6h62.9"/>
  <path class="cls-12" d="M523.6,505l-60.4,60.4"/>
  <path class="cls-12" d="M478.9,597.3l77-76.8"/>
  <path class="cls-12" d="M581.3,549.7l-74.3,74.1"/>
  <path class="cls-10" d="M817.4,587l8.5,46c.9,4.9-2.3,9.6-7,10.5-.5.2-1.1.2-1.8.2-4.4,0-8.1-3.1-8.9-7.4l-9.4-47.6,18.6-1.6h0Z"/>
  <path class="cls-2" d="M855.6,655.2c-6.4-28.8-31.4-194.1-36.6-226.9,0,0-11.2-3.1-13.7-3.1-13.2-.2-46.7,1.5-46.7,1.5-1.6,14.9,30.6,200.5,32,210.8.9,4.5,5,7.8,9.7,7.2,2.7-.2,4.7-2.3,5.2-4.9,1.1-4.5,2.7-11,4-15.5.7-2,1.6-4.3,3.1-6.5.2-.4.9-.2.9.2l6.1,30.1c1.1,7.9,12.6,10.1,16.6,3.1l1.5,7.4c2.7,11.7,20,8.3,18-3.5h0Z"/>
  <path class="cls-6" d="M819,428.3l-9-56.1c-6.1-47.6-41.7-83-87.5-83h-129.5c-45.8,0-82.9,37.2-82.9,83l.2,57.9,55.2,3.1,5.8,136,186.6.3.9-141.2h60.3-.1Z"/>
  <path class="cls-8" d="M618.7,450.3h-24.6v-156.4c0-6.6,5.4-12.3,12.1-12.3h.2c6.7,0,12.3,5.4,12.3,12.1v156.5h0Z"/>
  <path class="cls-2" d="M627.4,473.8c-1.1-.7-1.4-2.3-.5-3.6.2-.2.3-.5.5-.5,2.4-1.8,3.6-4.5,3.6-7.4,0-6.5-5.2-11.9-11.9-11.9h-25.1v-10.7c-.2.2-23,29.4-23,29.4l-1.5-40.8h-59.3l-.3,148.1c0,16.7,13.7,30.3,30.3,30.3s22.9-7,27.8-18l37.9-72.5c.3-.9,1.2-1.5,2.2-1.5h11c6.5,0,11.9-5.2,11.9-11.9s-1.3-5.6-3.6-7.4c-1.1-.7-1.4-2.3-.5-3.6.2-.2.3-.6.5-.6,2.3-1.8,3.6-4.5,3.6-7.4v-2.6c.2-2.9-1.1-5.7-3.5-7.5h-.1Z"/>
  <path class="cls-12" d="M626.4,471.8h-17.3"/>
  <path class="cls-12" d="M626.2,493.1h-17.1"/>
  <path class="cls-11" d="M722,289.2l-32.3-.3-37.5.3c13.1,19.3,39.3,24.3,58.6,11.2,4.3-3.1,8.3-6.8,11.2-11.2Z"/>
  <path class="cls-2" d="M709.4,253c-.7-.2-1.3,0-2,.3-.4.2-.7,0-.7-.3-2.7-22.8-23.1-38.3-46-36.1-17.7,1.8-32.3,13.7-36.4,30.9,0,.3-.6.5-.7.3-3.7-2.5-7.5,2.3-8.1,8.1-.5,6.1,3.1,11.4,7.4,8.9.3-.2.7,0,.7.3,4,22.5,25.4,37.9,48.2,34.3,15.8-2.6,28.8-13.9,33.7-29.1.2-.3.5-.5.9-.2,3.7,3.1,8.5-2.7,8.5-7.9-.2-5.1-2.3-9.4-5.4-9.5h-.1Z"/>
  <path class="cls-11" d="M667.5,216c-20.9-1.2-39,11.4-43.3,31.8,0,.3.2.7.6.5,18.2.7,23.8-14.1,24.9-18,.2-.3.6-.5.9-.2,1.6,1.8,6.5,6.1,15.7,6.7,8.7.3,14.6-3.5,16.4-4.7.4-.2.7,0,.7.4,2.9,14.2,16.8,19.1,22.5,21.1.4.2.7-.2.7-.5-1.4-20.8-18.2-35.5-39.1-37h0Z"/>
  <path class="cls-11" d="M656.8,256.1c2,0,3.6-1.6,3.6-3.6s-1.6-3.6-3.6-3.6-3.6,1.6-3.6,3.6,1.6,3.6,3.6,3.6Z"/>
  <path class="cls-11" d="M673.1,256.4c2,0,3.6-1.6,3.6-3.6s-1.6-3.6-3.6-3.6-3.6,1.6-3.6,3.6,1.6,3.6,3.6,3.6Z"/>
  <path class="cls-12" d="M662.8,259.5l4,.4c2,.2,3.6,2,3.4,3.9-.2,2-2,3.6-4,3.5l-3.7-.4"/>
  <path class="cls-12" d="M657.6,273.7c4.5,3.1,10.3,3.2,15.2.9"/>
  <path class="cls-12" d="M571,469l-36.1,46"/>
  <path class="cls-12" d="M624,916h-100.1"/>
  <path class="cls-12" d="M780.4,916h-100.1"/>
  <path class="cls-11" d="M759.3,378.9c3.8.2,6.9,3.6,7.9,7.2.7,3.7.3,7.5-1.1,11.2-.9,2-1.5,4-1.6,6-.2,1.9.3,4.1,1.8,5.6,1.6,1.1,3.2,1.8,5.1,2.3,6.8,2.7,10.8,9.9,9.5,17.1l-22.2.4.6-49.8h0Z"/>
  <path class="cls-12" d="M715.7,370.6c-14.6,36.4-33.7,71.1-57.2,102.6"/>
  <path class="cls-12" d="M672,337.9c-6.3,16.2-14.2,31.8-23.8,46.4"/>
  <path class="cls-12" d="M729.9,481c-6.5,17.7-15.5,34.1-26.8,49"/>
  <path class="cls-12" d="M569.6,427.4l-.2-47.8"/>
  <path class="cls-12" d="M813.2,617c2.9-5.4,9.2-6.5,13.3-3.3,3.8,2.9,5.6,16.1,5.6,16.1l1.3,8.3"/>
  <path class="cls-2" d="M956.8,982.3l12.3-27.2,5.8-51h-33.4l-6.1,51,5.1,27.2h16.4,0Z"/>
  <path class="cls-5" d="M935.3,955.1h33.7l-3.6,27.4-3.1,15-31-5.6,4-36.8h0Z"/>
  <path class="cls-1" d="M965.4,982.5h-1.8c-4.1,0-7.6,3.5-7.6,7.6v1.6h-24.7s-2.2,10.1-15.2,10.1-18,8.3-18,14.8h64.4l1.2-16.2,1.6-17.9h0Z"/>
  <path class="cls-2" d="M1041.2,982.3l-11.4-27.2-6-51,33.9,2.3,5.8,49.3-5.6,26.7h-16.8,0Z"/>
  <path class="cls-5" d="M1063.5,955.1h-33.7l3.4,27.4,8.1,18.8,26.2-9.6-4-36.6h0Z"/>
  <path class="cls-1" d="M1033.2,982.5h2c4.1,0,7.6,3.5,7.6,7.6v1.6h24.7s2.2,10.1,15.2,10.1,18,8.3,18,14.8h-64.4l-1.2-16.2-1.8-17.9h0Z"/>
  <path class="cls-1" d="M989.4,833.3h-54.7c-10.4,0-18.9-8.5-18.9-18.9v-82.1c0-10.4,8.5-18.9,18.9-18.9h54.7c10.4,0,19,8.5,19,18.9v82.1c0,10.4-8.5,18.9-19,18.9Z"/>
  <path class="cls-7" d="M957.7,911.3l15.2,9.6,1.2-9-16.4-.6Z"/>
  <path class="cls-7" d="M1044.4,911.8l-18.6,9.2-1.2-9.6,19.8.4h0Z"/>
  <path class="cls-6" d="M1056.8,821.3l.4,4.1,9.2,86.6h-63.7s-3.6-28-5.4-41.5c0-.7-1.1-.6-1.1,0l-5.4,41.5h-63.7l9.2-86.6.3-4.1h120.2Z"/>
  <path class="cls-12" d="M996.8,825.8v22.9"/>
  <path class="cls-2" d="M837.6,633.4c-.9.2-17.3,3.6-17.7,3.6-3.2.9-5.2,4.4-4.3,7.6.6,1.6,2.2,4,5.2,4.5-2.3,1.2-3.4,4.1-2.9,6.7.4,1.8,2,5.4,6.2,4.9-2.2,1.4-3.6,4.1-2.7,6.6,2.7,7.2,11.5,3.8,13.9,3.5.5,2.2,5.6,31,8.1,43.1.9,4.1.7,3.8,1.3,6.1,1.8,12.1,17.3,14.6,23.6,12.1,3.6-1.5,62.9-24.9,61.3-24.5-.5-1.1-6-14.2-9.4-22.4-1.4-3.5-5.2-5.1-8.6-3.6l-39.9,15.9c-2.9-13.9-11.9-55.6-13.5-68.9-1.4-4.5-5.1-5.6-8.1-4.1l3.2,18.6c1.1,6.1-3.2,11.9-9.4,13.2,0,0,3.1-2.3,2-6.6-.9-3.6-5.4-4.5-5.4-4.5,0,0,3.6-2.5,2.5-7-.5-1.8-2-4.7-5.4-4.5v-.3h0Z"/>
  <path class="cls-12" d="M843.9,656.1s3.1-2.3,2-6.6c-.9-3.6-5.4-4.5-5.4-4.5,0,0,3.6-2.5,2.5-7-.5-1.8-2-4.7-5.4-4.5-.9.2-17.3,3.6-17.7,3.6"/>
  <path class="cls-14" d="M853.2,642.9c1.1,6.1-3.2,11.9-9.4,13.2"/>
  <path class="cls-12" d="M850,624.3l3.2,18.6c1.1,6.1-3.2,11.9-9.4,13.2"/>
  <path class="cls-10" d="M936.4,718.5v106.9h120.8v-32.1l1.6-37.1,29.8-4.9v-33.2c0-25.9-21.1-47.2-47.1-47.2h-93.2c-12.1,0-23.3,3.6-34.6,7.4-8.1,2.7-11,3.4-24.2,8.9l14.1,36.6,33.1-10.3-.3,5.1h0Z"/>
  <path class="cls-1" d="M936.4,772v22.9s34.8-6.7,34.8-36.1v-87.6l-19.3-.2c-.3,0-.5.2-.5.5v62.6c0,20.2,1.4,35-15,37.9h0Z"/>
  <path class="cls-2" d="M993.4,592c25.3,0,47.8,16.6,47.8,41.8s-20.4,45.6-45.6,45.6-45.6-20.4-45.6-45.6,18.2-41.8,43.5-41.8h-.1Z"/>
  <path class="cls-11" d="M970.5,615.1c1.5,0,2.7-1.2,2.7-2.7s-1.2-2.7-2.7-2.7-2.7,1.2-2.7,2.7,1.2,2.7,2.7,2.7Z"/>
  <path class="cls-12" d="M971.6,621.4h-5.8c.7,2.2,1.6,4.3,2.7,6.3"/>
  <path class="cls-12" d="M961.2,631.7c2.9,3.6,7.6,5.2,12.1,4.1"/>
  <path class="cls-1" d="M1061,675.4c-6.5-3.2-12.8-4.7-19.9-4.3v69.6h19.9v-65.3Z"/>
  <path class="cls-11" d="M1048.9,649.9c-.4-15-7.6-30.1-15.9-42.4-7.9-11.9-21.8-18.7-35.7-19.3-22.2-1.9-28,9.6-27.6,9.8,6.1,2.9,14.1,1.6,19.6-.2.6-.2,1.2.3,1.1.9-.3,4.7,2.2,8.6,5.1,12.8,3.6,5.6,9.4,11.2,15.5,13.2,6.7,1.6,12.8,3.5,12.8,11.7-.2,4.9-1.6,11-6.5,12.3-.2,0-.6.2-.6.3-2.2,3.2-4.5,7-4.5,10.8.7,28.3,38.9,25.4,36.6-9.9h.1Z"/>
  <path class="cls-11" d="M982.4,619.9c1.5,0,2.7-1.2,2.7-2.7s-1.2-2.7-2.7-2.7-2.7,1.2-2.7,2.7,1.2,2.7,2.7,2.7Z"/>
  <path class="cls-12" d="M1017,648.9c-3.2.7-6.8.2-9.5-1.8"/>
  <path class="cls-2" d="M1070.7,733.3c-.7-6.9-10.4-5.4-9.9,1.1,0,.3-.2.6-.5.6h-25.6c-9,0-9,8.8-4,11,.3.2.5.7,0,.9-1.8.7-2.7,2.6-2.7,5.1s1.6,4.5,3.2,5.4c.4.2.4.7,0,.9-1.6.9-2,2.7-2,5.2s3.5,5.2,5.6,5.1c2.3.2,8.1-.2,7.4.2.6,2.2,7.8,26.3,12.7,42,2.7,8.9,3.4,12.4,4.5,14.2,10.4,16.2,30.5,4.7,29.2-8.1,0-4.7.2-59.5,0-65.4,0-.4-.2-.6-.6-.6h-16.6c-.4,0-.6-.2-.6-.5-.2-2.7-.2-17-.2-17h0Z"/>
  <path class="cls-12" d="M1031.1,746.4h21.6"/>
  <path class="cls-12" d="M1031.4,757.8h21.3"/>
  <path class="cls-12" d="M1070.7,750.4l10.3,41.7"/>
  <path class="cls-12" d="M936.4,766.8v38"/>
  <path class="cls-12" d="M1017,717.4c-8.5,28.2-22.4,54.5-41.1,77.2"/>
  <path class="cls-12" d="M1010.7,776.3c-3.6,8.9-8.5,17-14.2,24.6"/>
  <path class="cls-12" d="M824.9,660.4l19-4.5s2.6,1.1,3.4,4.9c.4,1.8-.3,4.1-1.6,5.7-1.2,1.6-3.8,2.2-9.4,3.5"/>
  <path class="cls-12" d="M839.9,645.1l-19.1,4"/>
  <path class="cls-13" d="M727.9,981.4c7.7,0,13.9-6.2,13.9-13.9s-6.2-13.8-13.9-13.8-13.9,6.2-13.9,13.8,6.2,13.9,13.9,13.9Z"/>
</svg>